<mxfile host="" modified="2020-06-22T06:40:46.002Z" agent="5.0 (Macintosh; Intel Mac OS X 10_15_5) AppleWebKit/537.36 (KHTML, like Gecko) Code/1.45.1 Chrome/78.0.3904.130 Electron/7.2.4 Safari/537.36" etag="moIVdWE0sQbe2JR2NBhv" version="13.1.3">
    <diagram id="AZN4mt--jy0nBWxoQV5O" name="Page-1">
        <mxGraphModel dx="1096" dy="657" grid="1" gridSize="10" guides="1" tooltips="1" connect="1" arrows="1" fold="1" page="1" pageScale="1" pageWidth="827" pageHeight="1169" math="0" shadow="0">
            <root>
                <mxCell id="0"/>
                <mxCell id="1" parent="0"/>
                <mxCell id="SpL9ILpTJnfa2vEchgF8-2" value="作業用マシン" style="rounded=0;whiteSpace=wrap;html=1;fillColor=#d5e8d4;strokeColor=#82b366;align=left;verticalAlign=top;spacing=15;" parent="1" vertex="1">
                    <mxGeometry x="120" y="160" width="220" height="140" as="geometry"/>
                </mxCell>
                <mxCell id="SpL9ILpTJnfa2vEchgF8-3" value="minikube&lt;br&gt;on VirtulBox" style="rounded=0;whiteSpace=wrap;html=1;fillColor=#f8cecc;strokeColor=#b85450;" parent="1" vertex="1">
                    <mxGeometry x="200" y="220" width="120" height="60" as="geometry"/>
                </mxCell>
                <mxCell id="SpL9ILpTJnfa2vEchgF8-4" value="NAT" style="ellipse;whiteSpace=wrap;html=1;align=center;fillColor=#f8cecc;strokeColor=#b85450;" parent="1" vertex="1">
                    <mxGeometry x="230" y="200" width="60" height="30" as="geometry"/>
                </mxCell>
                <mxCell id="SpL9ILpTJnfa2vEchgF8-6" value="動作確認用マシン" style="rounded=0;whiteSpace=wrap;html=1;align=left;verticalAlign=top;spacing=10;fillColor=#fff2cc;strokeColor=#d6b656;" parent="1" vertex="1">
                    <mxGeometry x="450" y="160" width="160" height="70" as="geometry"/>
                </mxCell>
                <mxCell id="SpL9ILpTJnfa2vEchgF8-8" value="" style="curved=1;endArrow=classic;html=1;exitX=0;exitY=0.5;exitDx=0;exitDy=0;entryX=0.5;entryY=0;entryDx=0;entryDy=0;" parent="1" source="SpL9ILpTJnfa2vEchgF8-6" target="SpL9ILpTJnfa2vEchgF8-4" edge="1">
                    <mxGeometry width="50" height="50" relative="1" as="geometry">
                        <mxPoint x="360" y="320" as="sourcePoint"/>
                        <mxPoint x="440" y="280" as="targetPoint"/>
                        <Array as="points">
                            <mxPoint x="410" y="170"/>
                            <mxPoint x="300" y="170"/>
                        </Array>
                    </mxGeometry>
                </mxCell>
                <mxCell id="SpL9ILpTJnfa2vEchgF8-9" value="http" style="text;html=1;align=center;verticalAlign=middle;whiteSpace=wrap;rounded=0;fillColor=#f5f5f5;strokeColor=#666666;fontColor=#333333;" parent="1" vertex="1">
                    <mxGeometry x="290" y="180" width="140" height="20" as="geometry"/>
                </mxCell>
                <mxCell id="2" value="要ポートフォワード" style="shape=callout;whiteSpace=wrap;html=1;perimeter=calloutPerimeter;fillColor=#d80073;strokeColor=#A50040;fontColor=#ffffff;position2=0.5;size=20;position=0.5;" vertex="1" parent="1">
                    <mxGeometry x="320" y="110" width="140" height="50" as="geometry"/>
                </mxCell>
            </root>
        </mxGraphModel>
    </diagram>
</mxfile>